<svg fill="none" height="98" viewBox="0 0 116 98" width="116" xmlns="http://www.w3.org/2000/svg"><path d="m115 23.4-10.8-2.5c.5 1.4.8 2.8.8 4.3.1 2.2-.2 4.4-.8 6.3v.2c0 .2.1.4.3.5.1 0 .2.1.3.1s.2-.1.3-.1l.2-.2.2-.2 9.4-8.1c.1-.1.1-.1.1-.2.2 0 .1-.1 0-.1z" fill="#233e99"/><path d="m14.7 0-.3.6c-3.3 5.7-1.4 13 4.3 16.3l3.5 2c-.8 1.5-1.2 3.1-1.4 4.7l47 7.4z" fill="#233e99"/><path d="m12.8 93.6c3.7 3.9 9.4 4.9 14.1 2.8l3.8-12.3c15.1 12.5 37.4 12.2 52.1-1.5 11.2-10.4 15-25.7 11.3-39.4 4.1-2 7.1-5.7 8.2-10.1.1-.3.1-.5.2-.8s.1-.6.1-.9c.1-.5.1-1.1.1-1.6 0-.1 0-.1 0-.2 0-.8-.1-1.5-.2-2.2 0-.1 0-.1 0-.2-1.2-7.2-7.5-12.7-15.2-12.7-.1 0-.1 0-.2 0-.3 0-.6 0-.9 0 0 0 0 0-.1 0-.3 0-.7.1-1 .1-.1 0-.2 0-.4 0-.1 0-.1 0-.2 0 0 0 0 0-.1 0s-.1 0-.2 0-.2.1-.4.1c-7 1.5-12.2 7.5-12.2 14.8 0 1.1.2 2.2.4 3.2l.2.7v.3c0 .7-.5 1.3-1.2 1.2l-.6-.1-69.899986-11-.100006.7c-1.1 6.8 3.599992 13.2 10.399992 14.3l4.2.7c-.8 6.6 3.8 12.8 10.5 13.8l4.2.7c-.8 6.6 3.8 12.8 10.5 13.8h.2z" fill="#ef3e42"/></svg>